<svg width="32" height="32" viewBox="0 0 32 32" fill="none" xmlns="http://www.w3.org/2000/svg">
<rect width="32" height="32" rx="16" fill="white"/>
<path d="M16.2 14.0401C16.4699 14.0429 16.7299 13.9377 16.9233 13.7476C17.1167 13.5575 17.2278 13.2978 17.2322 13.0252C17.2387 12.4896 16.7486 11.9973 16.2 11.9855C15.9302 11.9896 15.6729 12.1009 15.4838 12.2953C15.2948 12.4897 15.1892 12.7515 15.1899 13.0239C15.1833 13.1595 15.205 13.2949 15.2535 13.4214C15.302 13.548 15.3762 13.6628 15.4714 13.7586C15.5666 13.8543 15.6807 13.9289 15.8062 13.9774C15.9316 14.0259 16.0658 14.0472 16.2 14.0401Z" fill="black"/>
<path d="M21.3287 21.3133C21.3287 19.1484 21.3404 16.9809 21.3287 14.8186C21.3302 13.8641 21.2061 12.9136 20.9594 11.9921C20.6097 10.7291 19.8349 9.86789 18.609 9.44515C18.2853 9.33487 18.1982 9.17471 18.2008 8.84518C18.2164 6.86016 18.2099 4.87513 18.2008 2.89142C18.2008 2.15492 18.0448 2.00131 17.318 2C16.4249 2 15.5318 2 14.6386 2C14.0835 2 13.9145 2.16936 13.9145 2.73651C13.9145 4.83706 13.9067 6.93762 13.9145 9.03817C13.9145 9.34012 13.8378 9.51736 13.557 9.6447C11.9463 10.3799 11.2949 11.7531 11.0869 13.4323C11.0118 14.232 10.9853 15.0357 11.0076 15.8387C11.0076 19.94 11.0076 24.0409 11.0076 28.1414C11.0076 28.8753 11.1298 29 11.8514 29H20.5252C21.1753 29 21.3326 28.8503 21.3326 28.1978C21.3326 25.9004 21.3326 23.6038 21.3326 21.308L21.3287 21.3133ZM20.1586 20.1028C20.1586 21.8739 20.1521 23.6475 20.1586 25.4172C20.1586 25.7363 20.0715 25.84 19.7478 25.8374C17.3592 25.826 14.9715 25.826 12.5846 25.8374C12.2609 25.8374 12.1738 25.7363 12.1751 25.4172C12.1855 21.824 12.1751 18.232 12.1868 14.6401C12.2002 14.05 12.2699 13.4627 12.3948 12.8861C12.6236 11.7413 13.3204 10.9969 14.3695 10.5742C14.9104 10.3563 15.1496 10.0044 15.1041 9.40183C15.0722 8.77952 15.0722 8.15596 15.1041 7.53365C15.1184 7.06365 14.8909 6.44398 15.2016 6.16697C15.5123 5.88996 16.135 6.11315 16.6173 6.07376C16.9423 6.04751 17.0372 6.19061 17.032 6.50438C17.0177 7.42337 17.032 8.34236 17.032 9.26135C17.032 10.1423 17.0255 10.1685 17.8757 10.4298C19.1212 10.8131 19.7829 11.6678 19.9766 12.9321C20.0983 13.7257 20.1604 14.5275 20.1625 15.3306C20.1612 16.9152 20.1573 18.5064 20.156 20.0976L20.1586 20.1028ZM16.1818 27.8237C14.9988 27.8237 13.8157 27.8145 12.6327 27.8237C12.3168 27.8237 12.1712 27.7685 12.1725 27.401C12.1738 27.0334 12.3272 27.0071 12.6119 27.0137C14.978 27.0215 17.344 27.0215 19.7101 27.0137C20.0221 27.0137 20.1703 27.0596 20.1742 27.4311C20.1742 27.8421 19.9584 27.825 19.6815 27.825C18.5128 27.8158 17.3453 27.8184 16.1792 27.8184L16.1818 27.8237ZM15.9985 3.196H16.291C17.123 3.20913 17.0203 3.07653 17.0242 3.91544C17.0242 4.88432 17.0242 4.88432 15.9972 4.88432C15.0976 4.88432 15.0976 4.88432 15.0976 4.03623C15.0976 3.18813 15.0976 3.196 15.9985 3.196Z" fill="black"/>
</svg>
